<svg width="40" height="41" viewBox="0 0 40 41" fill="none" xmlns="http://www.w3.org/2000/svg">
<path fill-rule="evenodd" clip-rule="evenodd" d="M14.1358 0.277859C13.3818 0.68427 12.7983 1.15351 12.3083 1.7475C10.5819 3.84036 10.5451 6.81791 12.2182 9.02552C12.5849 9.50945 13.4117 10.2206 13.9487 10.5138L14.2006 10.6514V13.0776V15.5039H9.16859C5.95048 15.5039 3.96381 15.535 3.65744 15.5902C1.92182 15.9029 0.364807 17.4777 0.0703945 19.2184C0.00950943 19.5787 -0.0109202 21.819 0.00539119 26.3647L0.0290508 32.9861L0.211302 33.352C0.497962 33.9273 0.823867 34.2673 1.37555 34.5665L1.88629 34.8434H20.0145H38.1428L38.6516 34.5674C39.2167 34.261 39.4601 34.0095 39.7824 33.3985L40 32.9861V26.0821C40 19.547 39.9919 19.1542 39.8488 18.7339C39.5964 17.9923 39.2368 17.3904 38.7452 16.8864C38.2217 16.3497 37.7693 16.059 36.9816 15.7531L36.447 15.5454L32.4297 15.5205L28.4125 15.4956V12.0287V8.56178L28.7456 7.89018L29.0786 7.21851L28.7392 3.8343C28.5525 1.97303 28.3655 0.385982 28.3235 0.307655C28.1792 0.0379523 27.9512 0 26.4745 0C24.9977 0 24.7698 0.0379523 24.6255 0.307655C24.5835 0.385982 24.3965 1.97303 24.2098 3.8343L23.8703 7.21851L24.2034 7.89018L24.5365 8.56178V12.0329V15.5039H21.9525H19.3685V13.0926V10.6814L19.9125 10.3296C21.6627 9.19776 22.689 7.2039 22.5695 5.16796C22.5157 4.25089 22.3575 3.63138 21.9789 2.85441C21.449 1.76704 20.4875 0.808221 19.3507 0.233527C18.786 -0.0519218 18.5332 -0.060239 18.2748 0.19824L18.0765 0.396399V2.73934V5.08229L17.4746 5.48854C17.1435 5.71189 16.833 5.89471 16.7846 5.89471C16.7361 5.89471 16.4256 5.71189 16.0945 5.48854L15.4926 5.08229V2.73934V0.396399L15.2943 0.19824C15.0258 -0.0703327 14.7464 -0.0511143 14.1358 0.277859ZM27.2038 1.47368C27.2053 1.57364 27.3282 2.85449 27.4772 4.32009L27.7481 6.98482L27.554 7.36838L27.36 7.75194H26.4745H25.589L25.3913 7.36184L25.1936 6.97182L25.4703 4.2328C25.6225 2.72642 25.7472 1.44848 25.7473 1.39293C25.7477 1.31969 25.9471 1.29199 26.4745 1.29199C27.1735 1.29199 27.2013 1.29893 27.2038 1.47368ZM14.3081 5.79676C14.3451 5.85393 14.8619 6.22642 15.4567 6.62444C16.2291 7.1414 16.6084 7.34819 16.7846 7.34819C16.9607 7.34819 17.3408 7.14091 18.1158 6.62218C18.7124 6.22287 19.2384 5.82558 19.2846 5.73926C19.3359 5.64333 19.3685 4.84246 19.3685 3.67943C19.3685 2.63283 19.4004 1.77649 19.4395 1.77649C19.5778 1.77649 20.5427 2.8775 20.7632 3.2869C21.0564 3.83132 21.3068 4.8272 21.3053 5.44332C21.3013 7.08915 20.3123 8.6955 18.8241 9.4732C18.5025 9.64124 18.2028 9.84723 18.1579 9.93088C18.1079 10.0246 18.0765 11.126 18.0765 12.7934V15.5039H16.7846H15.4926V12.7934C15.4926 11.126 15.4612 10.0246 15.4112 9.93088C15.3663 9.84723 15.0666 9.64124 14.745 9.4732C13.1412 8.6351 12.1775 6.9463 12.2881 5.16796C12.3621 3.9761 12.8277 2.98635 13.6981 2.16957L14.1602 1.73611L14.2006 3.71447C14.2228 4.80257 14.2711 5.73959 14.3081 5.79676ZM27.1205 12.2739V15.5039H26.4745H25.8285V12.2739V9.04393H26.4745H27.1205V12.2739ZM36.9042 17.1378C37.6391 17.5011 38.0968 17.9687 38.4524 18.7193L38.708 19.2587L38.7324 22.5493L38.7568 25.8398H20.0145H1.27227L1.29665 22.5493L1.32104 19.2587L1.57661 18.7193C1.71712 18.4227 1.98052 18.019 2.1618 17.8223C2.51855 17.4353 3.25127 17.0038 3.75305 16.8852C3.93869 16.8413 10.6362 16.8162 20.1802 16.8236L36.2939 16.8362L36.9042 17.1378ZM29.7045 20.7774C29.3081 20.9023 28.6322 21.6022 28.5107 22.0136C28.287 22.7707 28.4447 23.3743 29.0153 23.9449C29.4335 24.3631 29.8425 24.5478 30.3504 24.5478C30.8584 24.5478 31.2674 24.3631 31.6856 23.9449C32.4746 23.1559 32.4982 22.1521 31.7473 21.3169C31.2247 20.7356 30.4697 20.5362 29.7045 20.7774ZM34.8724 20.7774C34.4761 20.9023 33.8001 21.6022 33.6786 22.0136C33.4549 22.7707 33.6126 23.3743 34.1833 23.9449C34.6015 24.3631 35.0105 24.5478 35.5184 24.5478C36.0263 24.5478 36.4353 24.3631 36.8535 23.9449C37.6426 23.1559 37.6662 22.1521 36.9153 21.3169C36.3927 20.7356 35.6377 20.5362 34.8724 20.7774ZM30.7982 22.1621C30.9232 22.287 30.9964 22.4525 30.9964 22.6098C30.9964 22.7671 30.9232 22.9327 30.7982 23.0576C30.6733 23.1826 30.5077 23.2558 30.3504 23.2558C30.1931 23.2558 30.0276 23.1826 29.9027 23.0576C29.7777 22.9327 29.7045 22.7671 29.7045 22.6098C29.7045 22.4525 29.7777 22.287 29.9027 22.1621C30.0276 22.0371 30.1931 21.9638 30.3504 21.9638C30.5077 21.9638 30.6733 22.0371 30.7982 22.1621ZM35.9662 22.1621C36.0912 22.287 36.1644 22.4525 36.1644 22.6098C36.1644 22.7671 36.0912 22.9327 35.9662 23.0576C35.8412 23.1826 35.6757 23.2558 35.5184 23.2558C35.3611 23.2558 35.1956 23.1826 35.0707 23.0576C34.9457 22.9327 34.8724 22.7671 34.8724 22.6098C34.8724 22.4525 34.9457 22.287 35.0707 22.1621C35.1956 22.0371 35.3611 21.9638 35.5184 21.9638C35.6757 21.9638 35.8412 22.0371 35.9662 22.1621ZM38.7312 29.9522C38.709 32.6559 38.7011 32.7819 38.5415 32.9955C38.4499 33.1181 38.2747 33.2933 38.1521 33.3849L37.929 33.5514H20.0145H2.10003L1.877 33.3849C1.75434 33.2933 1.57912 33.1181 1.48755 32.9955C1.3279 32.7819 1.32007 32.6559 1.29787 29.9522L1.27469 27.1318H20.0145H38.7544L38.7312 29.9522ZM3.86465 28.5293C3.7092 28.5783 3.39913 28.8018 3.17553 29.0258C2.60488 29.5977 2.44725 30.2012 2.67085 30.958C2.8019 31.4016 3.47083 32.0705 3.91439 32.2016C4.17036 32.2772 7.87393 32.2998 20.0297 32.2998C37.8383 32.2998 36.2819 32.3592 36.9153 31.6547C37.6394 30.8494 37.6394 29.8741 36.9153 29.0688C36.2815 28.3639 37.8469 28.4227 19.98 28.432C8.68337 28.4379 4.06628 28.4658 3.86465 28.5293ZM35.9662 29.914C36.2284 30.1762 36.2284 30.5473 35.9662 30.8095L35.768 31.0078H20.0145H4.26105L4.06289 30.8095C3.93789 30.6846 3.86465 30.5191 3.86465 30.3618C3.86465 30.2045 3.93789 30.0389 4.06289 29.914L4.26105 29.7158H20.0145H35.768L35.9662 29.914ZM6.44863 38.1137V40.0517H7.09462H7.74062V38.1137V36.1757H7.09462H6.44863V38.1137ZM12.9086 38.1137V40.0517H13.5546H14.2006V38.1137V36.1757H13.5546H12.9086V38.1137ZM19.3685 38.1137V40.0517H20.0145H20.6605V38.1137V36.1757H20.0145H19.3685V38.1137ZM25.8285 38.1137V40.0517H26.4745H27.1205V38.1137V36.1757H26.4745H25.8285V38.1137ZM32.2884 38.1137V40.0517H32.9344H33.5804V38.1137V36.1757H32.9344H32.2884V38.1137Z" fill="#1C1F34"/>
</svg>
