<svg width="49" height="40" viewBox="0 0 49 40" fill="none" xmlns="http://www.w3.org/2000/svg">
<path fill-rule="evenodd" clip-rule="evenodd" d="M30.7655 2.94156C28.4493 5.25783 27.7681 5.99254 27.7681 6.17495C27.7681 6.35335 28.1812 6.82432 29.4615 8.10616C31.4121 10.0589 31.4625 10.084 32.1125 9.41826L32.4867 9.03512L33.3084 9.85315L34.1303 10.6712L34.1368 11.7027L34.1433 12.734L30.8359 16.0403L27.5286 19.3467L22.8623 14.6796L18.196 10.0126L18.4209 9.54904C18.5931 9.19433 18.6454 8.92868 18.6432 8.41734C18.6386 7.32545 18.5238 7.17444 15.1517 3.82212C13.5071 2.18719 12.0112 0.770091 11.8274 0.673015C11.3252 0.407463 10.0043 0.424645 9.4888 0.703464C9.27345 0.819822 7.18541 2.83828 4.70076 5.33181C0.476372 9.57128 0.288329 9.77507 0.142858 10.2722C-0.0580717 10.959 -0.0484309 11.4068 0.180562 12.0171C0.348178 12.4638 0.723978 12.8752 3.44984 15.5962C5.72917 17.8714 6.64142 18.7208 6.95928 18.8635C7.49019 19.1017 8.36798 19.1209 8.96399 18.9074C9.37855 18.7588 9.45071 18.764 11.0162 19.0567C11.9086 19.2234 12.6656 19.3891 12.6984 19.4249C12.7313 19.4607 13.1535 20.1772 13.6368 21.0172C14.1202 21.8572 14.5689 22.5997 14.6341 22.6673C14.6993 22.735 15.5965 22.9471 16.6277 23.1387L18.5027 23.4872L19.365 24.9882C19.8393 25.8138 20.2273 26.5238 20.2273 26.566C20.2273 26.6082 18.1675 28.7066 15.65 31.2292C10.5861 36.3032 10.6539 36.2197 10.6539 37.3874C10.6539 38.889 11.7616 39.9998 13.2592 39.9998C14.4312 39.9998 14.2896 40.1171 20.0364 34.3812L25.2386 29.1889L25.6762 29.9668C25.9168 30.3947 26.2175 30.8192 26.3443 30.9103C26.4827 31.0095 27.2244 31.1935 28.1977 31.37C29.0902 31.5319 29.9063 31.701 30.0113 31.746C30.1196 31.7923 30.5945 32.518 31.109 33.4234C31.6077 34.3011 32.0802 35.0536 32.159 35.0957C32.2377 35.1377 33.0324 35.3081 33.9249 35.4743C34.8174 35.6405 35.6422 35.7995 35.7578 35.8275C35.9097 35.8645 36.2242 36.3262 36.8948 37.497C37.4046 38.3871 37.8996 39.1572 37.9948 39.2081C38.2946 39.3686 42.1694 40.0586 42.3618 39.9858C42.4619 39.948 43.1067 39.3697 43.7946 38.701C44.8916 37.6343 45.0452 37.447 45.0452 37.1753C45.0452 36.8924 44.4479 36.2681 38.1727 29.9907L31.3003 23.1157L34.5758 19.8413L37.8512 16.567L38.4979 16.6795C38.8534 16.7415 39.366 16.7706 39.6369 16.7441C40.1288 16.6962 40.1302 16.6969 40.893 17.3357C42.7451 18.8871 44.4164 19.794 47.2411 20.7806C48.2635 21.1376 48.6064 21.1235 48.7916 20.7169C48.888 20.5053 48.8578 20.3364 48.5832 19.5502C47.589 16.7038 46.569 14.8095 45.131 13.1388L44.5202 12.4291L44.5071 11.5209C44.4786 9.53252 43.4887 7.84567 41.8323 6.96282C41.0502 6.54598 40.2899 6.36509 39.3198 6.36509H38.5026L37.6681 5.52663L36.8335 4.68826L37.2167 4.31409C37.8747 3.67159 37.8489 3.61832 35.9533 1.72157C34.8725 0.640083 34.2132 0.0517083 34.0347 0.00913606C33.7784 -0.0519541 33.59 0.116999 30.7655 2.94156ZM35.0477 2.61969L36.0717 3.64696L33.7562 5.96104L31.4407 8.27512L30.3931 7.22417L29.3455 6.17333L31.6345 3.88283C32.8933 2.62313 33.946 1.59242 33.9735 1.59242C34.001 1.59242 34.4844 2.0547 35.0477 2.61969ZM11.1861 1.82094C11.3558 1.89444 12.8077 3.2745 14.4285 4.90284L17.3637 7.85178V8.38842C17.3637 8.86912 17.3249 8.97345 16.9928 9.38715C16.7887 9.64124 14.845 11.6173 12.6735 13.7784C8.40091 18.0304 8.52033 17.9353 7.65132 17.7745C7.34157 17.7173 6.89924 17.3143 4.36543 14.781C1.87448 12.2906 1.42241 11.7959 1.33612 11.4666C1.13624 10.7035 1.10627 10.7401 5.64689 6.18898C7.96994 3.86059 9.99947 1.89701 10.157 1.82542C10.527 1.65733 10.8057 1.65609 11.1861 1.82094ZM11.3979 5.92601C11.0337 6.09935 10.2954 6.78337 8.28236 8.81252C6.83128 10.2752 5.56795 11.6222 5.47489 11.8059C5.23978 12.2703 5.25324 13.0864 5.50409 13.5757C5.78902 14.1314 7.05216 15.3015 7.50184 15.4264C7.96631 15.5553 8.34068 15.5544 8.82062 15.423C9.1381 15.3361 9.66529 14.8579 11.9491 12.5851C13.7011 10.8417 14.7641 9.71064 14.8843 9.46236C15.1108 8.99455 15.1318 8.21823 14.9309 7.73752C14.7384 7.27658 13.565 6.12149 13.0539 5.88945C12.5011 5.63869 11.9772 5.65024 11.3979 5.92601ZM37.0004 6.67245L37.9793 7.64789L39.1497 7.65085C40.2629 7.65362 40.3515 7.66851 40.9579 7.95582C41.8454 8.3763 42.398 8.91733 42.8273 9.78624C43.1722 10.4842 43.1843 10.5437 43.1993 11.6103C43.2078 12.2166 43.2185 12.7563 43.2232 12.8094C43.2278 12.8626 43.5339 13.2492 43.9033 13.6685C44.6848 14.5556 45.6472 15.9595 46.1273 16.9127C46.5579 17.7679 47.1617 19.2667 47.1002 19.328C47.0254 19.4029 45.3714 18.7015 44.3775 18.1735C43.334 17.6193 42.4176 16.9803 41.4657 16.1431C41.0982 15.8199 40.7116 15.5129 40.6066 15.4608C40.4968 15.4064 40.1523 15.3931 39.7957 15.4293C38.0423 15.6078 36.5187 14.7876 35.7668 13.2607C35.4687 12.6554 35.4512 12.5611 35.4337 11.474C35.4236 10.8428 35.4129 10.2879 35.4098 10.241C35.4069 10.194 34.9657 9.70978 34.4295 9.16493L33.4548 8.17432L34.6907 6.93562C35.3704 6.25437 35.948 5.69692 35.9741 5.69692C36.0002 5.69692 36.462 6.13591 37.0004 6.67245ZM13.3045 7.71538C14.1598 8.63927 14.2576 8.45886 11.2785 11.4508C9.87414 12.8614 8.60738 14.0775 8.46353 14.1535C8.0715 14.3607 7.79774 14.2387 7.15706 13.5714C6.22477 12.6007 6.12359 12.7954 9.13085 9.77154C10.5353 8.3594 11.81 7.14905 11.9639 7.08185C12.3734 6.90297 12.6916 7.05341 13.3045 7.71538ZM21.9698 15.6007L26.623 20.2545L23.9214 22.9549L21.2197 25.6553L20.3656 24.1648C19.8958 23.345 19.4364 22.5934 19.3447 22.4944C19.2531 22.3955 19.0169 22.2857 18.8197 22.2504C18.6226 22.215 17.7808 22.052 16.9491 21.888L15.4367 21.5899L14.5075 19.9785C13.9115 18.9447 13.4956 18.3258 13.3472 18.2519C13.2201 18.1885 12.5576 18.0377 11.8751 17.9168C11.1926 17.7958 10.6147 17.6799 10.5907 17.659C10.5453 17.6194 17.1833 10.9469 17.2681 10.9469C17.2949 10.9469 19.4106 13.0411 21.9698 15.6007ZM34.9619 14.4548C35.2287 14.8737 35.7404 15.4111 36.2223 15.7787L36.5639 16.0393L25.365 27.2445C19.2056 33.4073 14.05 38.5113 13.9083 38.5867C13.5704 38.7664 12.9405 38.7613 12.5821 38.5759C11.9862 38.2678 11.7152 37.2669 12.0787 36.7167C12.2709 36.4259 34.5651 14.0968 34.6633 14.0968C34.702 14.0968 34.8365 14.2579 34.9619 14.4548ZM43.4942 37.1964C43.481 37.2227 43.1266 37.574 42.7066 37.9769L41.943 38.7095L40.3339 38.4064L38.7249 38.1034L37.7867 36.4839C37.2707 35.5931 36.7849 34.8179 36.7073 34.7611C36.6296 34.7043 35.7442 34.5097 34.7397 34.3285L32.9133 33.9992L31.9873 32.3886C31.4779 31.5027 30.9754 30.7226 30.8704 30.6549C30.7654 30.5872 29.8637 30.3789 28.8668 30.192C27.8698 30.0051 27.0421 29.8187 27.0276 29.7778C27.013 29.7369 26.8114 29.3813 26.5795 28.9875L26.158 28.2716L28.2751 26.1475L30.392 24.0234L36.955 30.5859C40.5647 34.1953 43.5073 37.17 43.4942 37.1964Z" fill="#1C1F34"/>
</svg>
