<svg width="42" height="16" viewBox="0 0 42 16" fill="none" xmlns="http://www.w3.org/2000/svg">
<path fill-rule="evenodd" clip-rule="evenodd" d="M33.7492 0.0495704C33.6079 0.110771 33.4775 0.235579 33.4025 0.381392C33.3544 0.47485 33.3429 0.564213 33.3429 0.841836C33.3429 1.17425 33.3404 1.18679 33.2725 1.19979C33.2338 1.2072 33.0591 1.23648 32.8843 1.26483C31.4797 1.49276 30.2 2.1519 29.1737 3.17606C28.1493 4.19828 27.441 5.58786 27.2477 6.95438C27.1858 7.39138 27.2342 7.34509 26.8396 7.34509C26.562 7.34509 26.4726 7.35665 26.3792 7.40472C25.8736 7.66478 25.8736 8.33818 26.3792 8.59823C26.4726 8.64631 26.562 8.65787 26.8396 8.65787C27.172 8.65787 27.1846 8.66034 27.1976 8.7282C27.205 8.76689 27.2343 8.94162 27.2626 9.11647C27.6739 11.6511 29.5347 13.7821 31.9899 14.5302C32.3229 14.6317 32.79 14.7353 33.0615 14.768C33.3628 14.8043 33.3429 14.7763 33.3429 15.1626C33.3429 15.54 33.3809 15.6604 33.551 15.8218C33.8834 16.1373 34.4285 16.0177 34.6071 15.5901C34.6405 15.51 34.6556 15.3716 34.6556 15.1452C34.6556 14.8296 34.6584 14.8161 34.726 14.8021C34.7647 14.7942 34.944 14.7644 35.1245 14.7359C37.9648 14.2887 40.2874 11.9608 40.7361 9.1115C40.7632 8.93937 40.7919 8.76689 40.7999 8.7282C40.8138 8.66059 40.8274 8.65784 41.1498 8.65718C41.4094 8.65665 41.5135 8.6434 41.6103 8.59861C42.1232 8.36115 42.1284 7.66662 41.6193 7.40472C41.5259 7.35665 41.4365 7.34509 41.1589 7.34509C40.8268 7.34509 40.8139 7.34255 40.7999 7.27476C40.7919 7.23606 40.7632 7.06359 40.7361 6.89146C40.4776 5.24998 39.5778 3.71799 38.2502 2.65895C37.3508 1.94154 36.3067 1.46963 35.2026 1.28156C34.9791 1.24348 34.7647 1.20648 34.726 1.19932C34.6583 1.18679 34.6556 1.17378 34.655 0.8509C34.6544 0.591344 34.6412 0.487196 34.5964 0.390457C34.447 0.0676994 34.0635 -0.086584 33.7492 0.0495704ZM35.3648 2.67436C36.6497 2.99386 37.8718 3.87215 38.6022 5.00083C39.034 5.66804 39.3721 6.56629 39.4436 7.23569L39.4536 7.32946L39.1045 7.34509C38.7795 7.35965 38.7463 7.36715 38.6224 7.45448C38.423 7.59508 38.3365 7.77977 38.3501 8.03614C38.3629 8.27623 38.4425 8.42004 38.6381 8.55679C38.7487 8.63408 38.7934 8.64374 39.107 8.65787L39.4536 8.6735L39.4436 8.76727C39.3909 9.26084 39.1677 9.9565 38.8871 10.502C38.2324 11.7749 37.0904 12.7645 35.7638 13.2084C35.4648 13.3084 34.9863 13.4222 34.765 13.4458L34.6713 13.4558L34.6556 13.1092C34.6415 12.7956 34.6319 12.7509 34.5546 12.6404C34.5076 12.5731 34.4172 12.4829 34.3537 12.4399C34.2552 12.3733 34.2028 12.3618 33.9964 12.3618C33.7781 12.3618 33.7416 12.3709 33.6214 12.4556C33.4084 12.6056 33.3429 12.7649 33.3429 13.1325V13.4402L33.2413 13.4397C33.1854 13.4394 33.0071 13.4112 32.845 13.377C30.994 12.9863 29.4142 11.5822 28.7987 9.78052C28.695 9.47683 28.5794 8.99654 28.5549 8.76727L28.5449 8.6735L28.8915 8.65787C29.2051 8.64374 29.2498 8.63408 29.3604 8.55679C29.4276 8.50981 29.5178 8.41941 29.5608 8.3559C29.6273 8.25769 29.6389 8.20483 29.6389 8.0011C29.6389 7.79096 29.6285 7.74677 29.5535 7.63937C29.3948 7.41207 29.2839 7.36281 28.8911 7.34509L28.5449 7.32946L28.5549 7.23569C28.6269 6.56154 28.9636 5.66797 29.397 5.00083C30.1724 3.80716 31.4643 2.91738 32.845 2.62597C33.0071 2.59178 33.1842 2.56355 33.2385 2.5633L33.3373 2.5628L33.3479 2.90162C33.3576 3.21116 33.3659 3.25098 33.4439 3.36266C33.4909 3.42986 33.5813 3.52004 33.6448 3.56302C33.743 3.6295 33.7959 3.64116 33.9992 3.64116C34.2026 3.64116 34.2555 3.6295 34.3537 3.56302C34.4172 3.52004 34.5076 3.42986 34.5546 3.36263C34.6318 3.2522 34.6409 3.20991 34.6494 2.92504C34.6545 2.75159 34.6639 2.59393 34.6703 2.57468C34.683 2.53611 34.9805 2.57881 35.3648 2.67436ZM33.5649 6.04937C33.2199 6.12423 32.8593 6.32602 32.592 6.5938C31.81 7.37731 31.8036 8.62393 32.5776 9.3924C32.9598 9.77189 33.3785 9.96368 33.887 9.99219C34.7992 10.0433 35.6359 9.46051 35.9146 8.57973C36.0128 8.26944 36.0128 7.73351 35.9146 7.42323C35.5997 6.42817 34.5766 5.82992 33.5649 6.04937ZM34.3548 7.43964C34.4177 7.48218 34.5076 7.57207 34.5546 7.63937C34.6296 7.7468 34.64 7.79093 34.64 8.00148C34.64 8.21202 34.6296 8.25616 34.5546 8.36359C34.5076 8.43088 34.4172 8.52112 34.3537 8.5641C34.2555 8.63058 34.2026 8.64224 33.9992 8.64224C33.7959 8.64224 33.743 8.63058 33.6448 8.5641C33.3926 8.39338 33.2775 8.05993 33.3719 7.77384C33.4148 7.64378 33.596 7.44892 33.7308 7.38791C33.8853 7.31799 34.2155 7.34534 34.3548 7.43964Z" fill="#6C757D"/>
</svg>
