<svg width="35" height="40" viewBox="0 0 35 40" fill="none" xmlns="http://www.w3.org/2000/svg">
<path fill-rule="evenodd" clip-rule="evenodd" d="M3.77595 0.0586051C2.11498 0.453306 0.778055 2.24996 0.170197 4.90418C0.00109546 5.64295 0 5.70039 0 14.0987V22.5499L0.20721 22.9919C0.601207 23.8321 1.39053 24.4002 2.30842 24.504C2.70531 24.5489 2.93717 24.5099 3.6916 24.271C3.86062 24.2175 3.86211 24.2264 3.88722 25.3789C3.91007 26.4241 3.93183 26.5798 4.10414 26.93C4.53288 27.8013 5.32572 28.3199 6.29925 28.3657C7.64447 28.429 8.70728 27.5749 8.95299 26.2329C9.00034 25.9747 9.03805 24.8545 9.03805 23.7093C9.03805 22.5767 9.05676 21.65 9.07968 21.65C9.10261 21.65 9.25223 21.7083 9.41225 21.7795C9.59748 21.862 9.91706 21.9097 10.2916 21.9109C11.3016 21.9141 12.1486 21.3972 12.603 20.5003L12.8333 20.0459L12.8563 17.1329L12.8795 14.2199L21.8944 14.1984C30.8795 14.1771 30.9109 14.1764 31.3498 14.0102C32.064 13.7397 32.812 13.1492 33.3095 12.4633L33.5308 12.1581V13.1059C33.5308 13.8738 33.5 14.1362 33.3683 14.488C33.1694 15.0196 32.589 15.6408 32.065 15.8827C31.694 16.054 31.6585 16.0553 25.8621 16.0996C19.5022 16.1482 19.6945 16.1342 18.8141 16.6132C17.9324 17.093 17.3093 17.8414 16.9828 18.813L16.8051 19.3416L16.3842 19.3626C15.5523 19.4042 15.4547 19.5759 15.4547 20.9965V21.963H15.0208C14.6643 21.963 14.5524 21.9974 14.3948 22.1551L14.2027 22.3472V30.9889C14.2027 39.3808 14.207 39.6359 14.3523 39.8152L14.5018 40H17.411H20.3201L20.4697 39.8152C20.615 39.6359 20.6193 39.3808 20.6193 30.9889V22.3472L20.4272 22.1551C20.2695 21.9974 20.1576 21.963 19.8012 21.963H19.3673V20.99C19.3673 19.6202 19.2512 19.3878 18.5652 19.3832C18.1426 19.3804 18.1261 19.3411 18.3447 18.8595C18.5492 18.4091 19.0647 17.9173 19.5904 17.6708L20.0324 17.4636L25.9013 17.4232C31.67 17.3835 31.7777 17.3799 32.214 17.2143C33.5185 16.7191 34.4076 15.7271 34.7471 14.3885C34.8559 13.9594 34.8679 13.3586 34.8402 9.73253C34.8105 5.85204 34.7972 5.5215 34.6449 4.86505C34.1082 2.55342 33.0845 0.977278 31.6862 0.309636L31.0659 0.0134539L17.5675 0.00116841C9.9025 -0.00579598 3.94239 0.0190098 3.77595 0.0586051ZM5.24794 1.4525C6.07592 1.82858 6.82338 2.86009 7.27074 4.24389C8.06351 6.69629 7.72578 9.7636 6.45732 11.6315C6.08335 12.1822 5.76409 12.4598 5.2139 12.7127C4.12112 13.215 2.96761 12.5771 2.17195 11.0303C1.56174 9.84412 1.29107 8.63803 1.29123 7.10617C1.29146 4.92945 1.86387 3.18984 2.96511 2.01928C3.59159 1.3532 4.52122 1.12243 5.24794 1.4525ZM31.1441 1.49178C32.5472 2.1577 33.5304 4.47058 33.5307 7.10617C33.5309 9.58949 32.608 11.8481 31.272 12.6336L30.9094 12.8467L19.0245 12.8673L7.13959 12.8878L7.2673 12.7108C8.61863 10.837 9.2041 8.57456 8.9789 6.09673C8.83468 4.50908 8.40719 3.24446 7.57741 1.95018L7.16354 1.3046L18.9582 1.30539L30.7529 1.30617L31.1441 1.49178ZM3.79051 4.06383C2.9126 4.65549 2.40733 6.19744 2.59858 7.7012C2.75539 8.9339 3.20456 9.79005 3.87157 10.1275C5.1826 10.7907 6.3768 9.37171 6.39041 7.13435C6.40239 5.17696 5.62597 3.88691 4.43592 3.88691C4.16791 3.88691 3.97432 3.93996 3.79051 4.06383ZM4.72491 5.39771C5.24105 6.23281 5.23972 8.0286 4.72248 8.75501C4.52091 9.03805 4.37684 9.03101 4.22144 8.73052C3.73229 7.78454 3.76116 6.08171 4.2788 5.35412C4.47528 5.07782 4.53053 5.08322 4.72491 5.39771ZM2.08767 13.1054C2.56869 13.5634 2.9493 13.8122 3.4721 14.0102C3.89646 14.1709 4.05343 14.1778 7.77014 14.2006L11.6278 14.2242L11.6045 16.9785C11.5814 19.7145 11.58 19.7348 11.3973 20.0287C11.0389 20.6053 10.1898 20.8133 9.65796 20.4548C9.51273 20.357 9.31381 20.1581 9.216 20.0128C9.05073 19.7677 9.03805 19.6659 9.03805 18.5866V17.4244H8.37292H7.70778V21.7705C7.70778 25.9393 7.70152 26.1289 7.5537 26.4186C7.17982 27.1516 6.23735 27.3338 5.62081 26.7924C5.13056 26.362 5.12548 26.3266 5.12548 23.3349V20.6327H4.50948H3.89356L3.85858 21.4808C3.81813 22.4627 3.69105 22.7558 3.18194 23.0419C2.57049 23.3856 1.78946 23.1805 1.45689 22.5887C1.29279 22.2968 1.29115 22.2428 1.29115 17.226V12.1581L1.51245 12.4633C1.63421 12.6311 1.89298 12.9201 2.08767 13.1054ZM18.037 21.2979V21.963H17.411H16.785V21.2979V20.6327H17.411H18.037V21.2979ZM19.3673 30.9619V38.7088H17.411H15.4547V30.9619V23.215H17.411H19.3673V30.9619ZM16.785 36.7917V37.4568H17.411H18.037V36.7917V36.1265H17.411H16.785V36.7917Z" fill="#1C1F34"/>
</svg>
