<svg width="40" height="40" viewBox="0 0 40 40" fill="none" xmlns="http://www.w3.org/2000/svg">
<path fill-rule="evenodd" clip-rule="evenodd" d="M37.6401 0.107595C37.2789 0.236444 37.3529 0.179794 34.0669 2.84116C30.1825 5.98697 25.4844 9.89096 21.9684 12.8945L21.3967 13.3828L15.444 7.44244C10.3527 2.36171 9.42722 1.47141 9.0488 1.29021C8.21984 0.893346 7.24375 0.893736 6.41744 1.29122C6.0516 1.46727 5.45784 2.01939 2.98627 4.48158C0.366553 7.09145 -0.00217822 7.48792 9.63102e-06 7.69303C0.00454161 8.11942 0.394448 8.40595 0.778884 8.26546C0.886323 8.22624 1.84445 7.32562 2.90798 6.26421L4.84172 4.33421L5.25132 4.74388L5.66099 5.15356L3.69638 7.1263C2.61582 8.21139 1.70966 9.1742 1.68262 9.26594C1.58354 9.60286 1.92868 9.99769 2.32233 9.99769C2.3936 9.99769 3.35875 9.09333 4.46705 7.988L6.48222 5.9783L6.91338 6.40407L7.34454 6.82992L5.35102 8.82454C3.56488 10.6117 3.35742 10.8456 3.35742 11.0726C3.35742 11.4007 3.5941 11.6386 3.92048 11.6386C4.14356 11.6386 4.38931 11.4209 6.16834 9.64662L8.16577 7.65458L8.57341 8.06223L8.98098 8.46979L6.98964 10.4707C5.28718 12.1813 4.9987 12.5047 5.00081 12.6997C5.00534 13.1205 5.39775 13.4058 5.77968 13.2663C5.88712 13.227 6.84525 12.3264 7.90878 11.265L9.84252 9.33501L10.2521 9.74468L10.6618 10.1544L8.69718 12.1271C7.61662 13.2122 6.71046 14.175 6.68342 14.2667C6.58434 14.6037 6.92948 14.9985 7.32313 14.9985C7.3944 14.9985 8.35955 14.0941 9.46785 12.9888L11.483 10.9791L11.9142 11.4049L12.3453 11.8307L10.3518 13.8253C8.56568 15.6125 8.35822 15.8464 8.35822 16.0734C8.35822 16.4015 8.5949 16.6394 8.92128 16.6394C9.14436 16.6394 9.39011 16.4216 11.17 14.6465L13.1683 12.6537L13.5934 13.0841L14.0185 13.5146L12.0088 15.5297C9.92707 17.6171 9.84768 17.7228 10.1056 18.0623C10.2557 18.2599 10.5533 18.3501 10.7805 18.2671C10.8879 18.2278 11.846 17.3272 12.9096 16.2658L14.8433 14.3358L15.2522 14.7448L15.6611 15.1537L13.6983 17.1272C12.6187 18.2126 11.712 19.1785 11.6834 19.2736C11.6271 19.4605 11.7472 19.7467 11.9457 19.8991C12.2734 20.1506 12.3913 20.0613 14.4696 17.9887L16.4857 15.978L16.9307 16.4231C17.1755 16.6679 17.3598 16.8807 17.3404 16.8961C16.8412 17.291 11.3552 22.1547 10.609 22.864C9.96332 23.4777 9.96449 23.4549 10.5273 24.3841C11.2392 25.5594 11.2844 26.9902 10.6501 28.2716C10.3352 28.9077 7.8869 31.3551 7.21718 31.7034C5.86165 32.4081 4.23959 32.3138 2.94587 31.4551C0.817484 30.0424 0.577133 26.9302 2.45751 25.1311C2.97275 24.6382 3.5655 24.3158 4.29609 24.131C5.7389 23.7661 7.20616 24.2051 8.30165 25.3295C8.63123 25.6678 8.70797 25.7097 8.95808 25.6884C9.31674 25.6579 9.576 25.3492 9.49942 25.044C9.42902 24.7634 8.96887 24.272 8.38924 23.8584C7.12459 22.956 5.68615 22.6369 4.23319 22.9364C1.66074 23.4667 -0.127511 25.7718 0.0255606 28.36C0.0783034 29.2513 0.219342 29.7562 0.647535 30.5869C1.67512 32.5804 4.10442 33.7197 6.32665 33.2502C6.60599 33.1912 6.84064 33.1483 6.84806 33.1547C6.8554 33.1611 6.80782 33.3947 6.74218 33.6738C6.56575 34.4243 6.6424 35.6391 6.91643 36.4357C7.44386 37.9687 8.67984 39.185 10.2734 39.7393C10.8258 39.9315 11.0101 39.9566 11.8744 39.9577C12.9697 39.9591 13.4295 39.8558 14.292 39.4149C15.6492 38.721 16.6743 37.4243 17.0395 35.9393C17.1754 35.3866 17.1754 34.0698 17.0395 33.5171C16.8851 32.8894 16.4826 32.0628 16.0592 31.504L15.6884 31.0146L16.2296 30.4101C17.6236 28.8528 21.3087 24.6932 22.1474 23.7301C22.662 23.1393 23.1027 22.656 23.1268 22.656C23.1509 22.656 23.3617 22.8495 23.5953 23.086L24.0201 23.5162L22.0104 25.5313C19.9387 27.6086 19.8494 27.7267 20.1009 28.0543C20.2533 28.2528 20.5395 28.3729 20.7264 28.3166C20.8215 28.288 21.7874 27.3813 22.8728 26.3017L24.8463 24.3389L25.2552 24.7478L25.6642 25.1567L23.7347 27.0904C22.6736 28.154 21.7729 29.1121 21.7334 29.2195C21.6496 29.4472 21.739 29.7435 21.9367 29.8936C22.2774 30.1524 22.3819 30.074 24.4703 27.9912L26.4854 25.9815L26.9159 26.4066L27.3463 26.8317L25.3535 28.83C23.5784 30.6099 23.3606 30.8556 23.3606 31.0787C23.3606 31.4051 23.5986 31.6418 23.9266 31.6418C24.1536 31.6418 24.3875 31.4343 26.1747 29.6482L28.1693 27.6547L28.5951 28.0858L29.0209 28.517L27.0112 30.5322C25.9059 31.6405 25.0015 32.6056 25.0015 32.6769C25.0015 33.0705 25.3963 33.4157 25.7333 33.3166C25.825 33.2895 26.7878 32.3834 27.8729 31.3028L29.8456 29.3382L30.2553 29.7479L30.665 30.1575L28.735 32.0912C27.6736 33.1548 26.7733 34.1127 26.7344 34.2199C26.5786 34.6502 26.9567 35.076 27.3982 34.9672C27.5443 34.9312 28.2815 34.2529 29.574 32.9653L31.5289 31.0178L31.9371 31.426L32.3454 31.8342L30.3534 33.8317C28.5791 35.6107 28.3614 35.8564 28.3614 36.0795C28.3614 36.4059 28.5994 36.6426 28.9274 36.6426C29.1544 36.6426 29.3883 36.4351 31.1755 34.649L33.1701 32.6555L33.5959 33.0866L34.0217 33.5178L32.012 35.533C30.9067 36.6413 30.0023 37.6064 30.0023 37.6777C30.0023 38.0713 30.3971 38.4165 30.7341 38.3174C30.8258 38.2903 31.7886 37.3842 32.8737 36.3036L34.8464 34.339L35.2561 34.7487L35.6658 35.1583L33.7363 37.092C32.6752 38.1556 31.7745 39.1137 31.735 39.2211C31.5936 39.6056 31.8798 39.9955 32.307 40C32.5121 40.0022 32.9086 39.6334 35.5184 37.0137C38.7273 33.7927 38.8306 33.6645 38.9856 32.7122C39.0302 32.4385 39.0302 32.0952 38.9856 31.8216C38.8214 30.8126 38.9796 30.9914 32.5569 24.5553C27.1111 19.0982 26.625 18.5902 26.7267 18.4622C26.7878 18.3854 27.5243 17.5131 28.3635 16.5238C32.9969 11.0615 39.3911 3.27263 39.772 2.62706C40.1612 1.96735 40.0335 1.11127 39.4609 0.54118C38.943 0.0255505 38.2994 -0.127677 37.6401 0.107595ZM26.2321 12.9475C15.3921 23.7876 14.6874 24.5087 14.6874 24.7597C14.6874 25.1182 14.8771 25.3126 15.2268 25.3126C15.4957 25.3126 15.9983 24.8226 27.0682 13.7678C33.4265 7.41814 38.5746 2.29334 38.5084 2.37929C36.9558 4.39602 30.8927 11.7429 27.1593 16.1315C23.3723 20.583 16.485 28.4382 16.3098 28.5057C16.2692 28.5212 16.0351 28.3275 15.7896 28.075C15.4477 27.7235 15.3198 27.5248 15.2432 27.2262C15.0864 26.6154 15.0166 26.4872 14.7952 26.403C14.5452 26.308 14.3429 26.3636 14.1377 26.5837C13.9447 26.7908 13.945 26.9667 14.139 27.5948C14.3203 28.1819 14.792 28.8762 15.2268 29.1959L15.5342 29.422L14.9166 30.1217C14.1332 31.0091 14.1136 31.1536 14.696 31.7445C16.2413 33.3125 16.4308 35.5049 15.1665 37.1895C14.2756 38.3768 12.7924 38.9847 11.3131 38.7691C8.50692 38.36 6.96847 35.3007 8.30204 32.7811C8.48371 32.4379 8.94441 31.9045 9.96082 30.8604C11.0943 29.6962 11.4254 29.3054 11.6625 28.8523C12.4329 27.3804 12.4682 25.6218 11.7564 24.1796L11.4865 23.6327L11.7074 23.4373C11.8289 23.3299 12.558 22.6783 13.3274 21.9895C19.8901 16.1138 28.7507 8.62005 36.9565 2.00555C37.3648 1.67644 37.7164 1.40616 37.7378 1.40491C37.7593 1.40358 32.5817 6.59777 26.2321 12.9475ZM8.5145 2.34616C8.66491 2.42312 11.4165 5.11699 14.6291 8.33266L20.4703 14.1792L19.3565 15.1357L18.2426 16.0921L11.9537 9.80329L5.66482 3.51447L6.17154 2.99962C6.45026 2.71645 6.78375 2.42836 6.91268 2.35944C7.40721 2.0951 8.01395 2.09002 8.5145 2.34616ZM37.6771 31.5246C37.8922 31.937 37.8909 32.5969 37.6742 33.0155C37.587 33.184 37.2838 33.5497 37.0005 33.8285L36.4855 34.3352L30.1855 28.0352L23.8855 21.7352L24.8481 20.6274L25.8108 19.5197L31.6623 25.3659C35.2257 28.926 37.5777 31.3342 37.6771 31.5246ZM4.43853 25.3012C3.59097 25.5821 2.96533 26.1309 2.59957 26.9145C2.4104 27.3197 2.38086 27.4788 2.38172 28.0865C2.38258 28.709 2.41032 28.8481 2.62348 29.2977C3.4054 30.9467 5.40673 31.5104 6.91018 30.5051C7.38221 30.1894 7.67342 29.8349 7.95245 29.2362C8.1292 28.8568 8.16046 28.6842 8.16046 28.0865C8.16046 27.4877 8.12936 27.3166 7.95097 26.9338C7.31673 25.5724 5.77836 24.8573 4.43853 25.3012ZM5.80969 26.4239C6.44878 26.6137 7.03074 27.4113 7.02942 28.0956C7.0277 29.0209 6.20038 29.8438 5.27179 29.8438C4.80234 29.8438 4.41611 29.6745 4.04995 29.3084C3.32757 28.586 3.33101 27.6016 4.05847 26.8723C4.56504 26.3646 5.12606 26.2209 5.80969 26.4239ZM10.9996 31.9436C10.1766 32.2162 9.60717 32.7517 9.20187 33.6343C9.05482 33.9546 9.02247 34.1587 9.02247 34.7673C9.02239 35.4252 9.04771 35.5612 9.24493 35.9629C9.52966 36.5426 10.1025 37.1146 10.6791 37.3948C11.0777 37.5884 11.2213 37.6151 11.8744 37.6163C12.518 37.6175 12.6765 37.5898 13.0662 37.4079C13.697 37.1134 14.3053 36.5137 14.5776 35.9176C14.8712 35.2751 14.8876 34.3449 14.6175 33.6541C14.3775 33.0403 13.7888 32.4125 13.1654 32.1056C12.5165 31.7862 11.6669 31.7227 10.9996 31.9436ZM12.4275 33.0593C13.5804 33.4047 14.0276 34.8915 13.2591 35.8239C12.6234 36.5951 11.4919 36.6893 10.7627 36.0318C9.99481 35.3395 9.9473 34.2829 10.6507 33.5411C11.1391 33.0261 11.7572 32.8585 12.4275 33.0593Z" fill="#1C1F34"/>
</svg>
