<svg width="209" height="49" viewBox="0 0 209 49" fill="none" xmlns="http://www.w3.org/2000/svg">
<path d="M104.942 37.0517L92.0194 43.8707C91.7248 44.0391 91.3459 43.7865 91.388 43.4077L93.8715 29.0121C93.9136 28.8858 93.8294 28.7174 93.7452 28.6333L83.2642 18.4469C83.0117 18.1944 83.1379 17.7735 83.5168 17.7314L97.9544 15.6267C98.0807 15.6267 98.207 15.5005 98.2912 15.4163L104.773 2.32557C104.942 2.03092 105.363 2.03092 105.531 2.32557L112.013 15.4163C112.055 15.5426 112.182 15.6267 112.35 15.6267L126.788 17.7314C127.124 17.7735 127.251 18.1944 127.04 18.4469L116.517 28.6333C116.433 28.7174 116.391 28.8858 116.391 29.0121L118.874 43.4077C118.916 43.7444 118.58 43.997 118.243 43.8707L105.321 37.0517C105.194 36.9675 105.068 36.9675 104.942 37.0517Z" fill="#494A9E"/>
<path d="M103.679 34.9471L90.7567 41.7661C90.4621 41.9345 90.0832 41.6819 90.1253 41.3031L92.6088 26.9075C92.6509 26.7812 92.5667 26.6129 92.4825 26.5287L82.0015 16.3423C81.749 16.0898 81.8752 15.6689 82.2541 15.6268L96.6917 13.5222C96.818 13.5222 96.9443 13.3959 97.0285 13.3117L103.511 0.220985C103.679 -0.0736616 104.1 -0.0736616 104.268 0.220985L110.751 13.3117C110.793 13.438 110.919 13.5222 111.087 13.5222L125.525 15.6268C125.862 15.6689 125.988 16.0898 125.778 16.3423L115.254 26.5287C115.17 26.6129 115.128 26.7812 115.128 26.9075L117.612 41.3031C117.654 41.6398 117.317 41.8924 116.98 41.7661L104.058 34.9471C103.932 34.863 103.805 34.863 103.679 34.9471Z" fill="url(#paint0_linear_1_1773)"/>
<path d="M117.022 41.724L104.1 34.905C103.974 34.8629 103.848 34.8629 103.721 34.905L90.799 41.724C90.5043 41.8924 90.1255 41.6398 90.2097 41.261L90.2939 40.7559L103.932 33.5581L117.57 40.7559L117.654 41.261C117.654 41.6398 117.317 41.8924 117.022 41.724Z" fill="#F9A111"/>
<path d="M125.735 16.3423L115.254 26.5286C115.17 26.6128 115.128 26.7812 115.128 26.9075L115.002 26.0656C114.96 25.8131 115.044 25.5184 115.254 25.308L125.272 15.5425L125.525 15.5846C125.819 15.6688 125.988 16.0897 125.735 16.3423Z" fill="url(#paint1_linear_1_1773)"/>
<path d="M82.0015 16.3423L92.4825 26.5286C92.5667 26.6128 92.6088 26.7812 92.6088 26.9075L92.735 26.0656C92.7771 25.8131 92.6929 25.5184 92.4825 25.308L82.4645 15.5425L82.2119 15.5846C81.9173 15.6688 81.791 16.0897 82.0015 16.3423Z" fill="url(#paint2_linear_1_1773)"/>
<path d="M151.201 39.4089L140.805 44.8809C140.552 45.0072 140.257 44.7967 140.3 44.5441L142.278 32.9688C142.278 32.8425 142.278 32.7583 142.194 32.6741L133.775 24.4661C133.565 24.2556 133.691 23.9189 133.944 23.8768L145.561 22.1931C145.687 22.1931 145.772 22.1089 145.814 22.0247L151.033 11.5017C151.159 11.2491 151.496 11.2491 151.622 11.5017L156.842 22.0247C156.884 22.1089 156.968 22.1931 157.094 22.1931L168.712 23.8768C169.006 23.9189 169.091 24.2556 168.88 24.4661L160.462 32.6741C160.378 32.7583 160.335 32.8846 160.378 32.9688L162.356 44.5441C162.398 44.8388 162.103 45.0492 161.851 44.8809L151.454 39.4089C151.412 39.3668 151.328 39.3668 151.201 39.4089Z" fill="#494A9E"/>
<path d="M149.939 37.7252L139.542 43.1972C139.289 43.3235 138.995 43.113 139.037 42.8605L141.015 31.2851C141.015 31.1588 141.015 31.0746 140.931 30.9905L132.513 22.7825C132.302 22.572 132.428 22.2352 132.681 22.1932L144.298 20.5095C144.425 20.5095 144.509 20.4253 144.551 20.3411L149.77 9.81802C149.897 9.56546 150.233 9.56546 150.36 9.81802L155.579 20.3411C155.621 20.4253 155.705 20.5095 155.832 20.5095L167.449 22.1932C167.744 22.2352 167.828 22.572 167.617 22.7825L159.199 30.9905C159.115 31.0746 159.073 31.2009 159.115 31.2851L161.093 42.8605C161.135 43.1551 160.841 43.3656 160.588 43.1972L150.191 37.7252C150.149 37.6831 150.065 37.6831 149.939 37.7252Z" fill="url(#paint3_linear_1_1773)"/>
<path d="M160.672 43.1972L150.275 37.7252C150.191 37.6831 150.065 37.6831 149.939 37.7252L139.542 43.1972C139.289 43.3234 138.995 43.113 139.037 42.8604L139.121 42.4395L150.107 36.6729L161.093 42.4395L161.177 42.8604C161.219 43.113 160.925 43.3234 160.672 43.1972Z" fill="#F9A111"/>
<path d="M167.702 22.7403L159.283 30.9483C159.199 31.0325 159.157 31.1588 159.199 31.243L159.073 30.5695C159.031 30.359 159.115 30.1065 159.283 29.9802L167.323 22.151L167.533 22.1931C167.786 22.2352 167.87 22.572 167.702 22.7403Z" fill="url(#paint4_linear_1_1773)"/>
<path d="M132.513 22.7403L140.931 30.9483C141.015 31.0325 141.057 31.1588 141.015 31.243L141.142 30.5695C141.184 30.359 141.1 30.1065 140.931 29.9802L132.934 22.151L132.723 22.1931C132.429 22.2352 132.302 22.572 132.513 22.7403Z" fill="url(#paint5_linear_1_1773)"/>
<path d="M58.7669 39.4089L48.3701 44.8809C48.1175 45.0072 47.8228 44.7967 47.8649 44.5441L49.8433 32.9688C49.8433 32.8425 49.8433 32.7583 49.7591 32.6741L41.3406 24.4661C41.1302 24.2556 41.2565 23.9189 41.509 23.8768L53.1265 22.1931C53.2528 22.1931 53.3369 22.1089 53.379 22.0247L58.5985 11.5017C58.7248 11.2491 59.0615 11.2491 59.1878 11.5017L64.4072 22.0247C64.4493 22.1089 64.5335 22.1931 64.6598 22.1931L76.2773 23.8768C76.5719 23.9189 76.6561 24.2556 76.4456 24.4661L68.0272 32.6741C67.943 32.7583 67.9009 32.8846 67.943 32.9688L69.9213 44.5441C69.9634 44.8388 69.6688 45.0492 69.4162 44.8809L59.0194 39.4089C58.9773 39.3668 58.851 39.3668 58.7669 39.4089Z" fill="#494A9E"/>
<path d="M57.5042 37.7252L47.1074 43.1972C46.8548 43.3235 46.5602 43.113 46.6022 42.8605L48.5806 31.2851C48.5806 31.1588 48.5806 31.0746 48.4964 30.9905L40.0779 22.7825C39.8675 22.572 39.9938 22.2352 40.2463 22.1932L51.8638 20.5095C51.9901 20.5095 52.0742 20.4253 52.1163 20.3411L57.3358 9.81802C57.4621 9.56546 57.7988 9.56546 57.9251 9.81802L63.1445 20.3411C63.1866 20.4253 63.2708 20.5095 63.3971 20.5095L75.0146 22.1932C75.3092 22.2352 75.3934 22.572 75.1829 22.7825L66.7645 30.9905C66.6803 31.0746 66.6382 31.2009 66.6803 31.2851L68.6586 42.8605C68.7007 43.1551 68.4061 43.3656 68.1535 43.1972L57.7567 37.7252C57.7146 37.6831 57.5883 37.6831 57.5042 37.7252Z" fill="url(#paint6_linear_1_1773)"/>
<path d="M68.1956 43.1972L57.7988 37.7252C57.7147 37.6831 57.5884 37.6831 57.4621 37.7252L47.0653 43.1972C46.8127 43.3234 46.5181 43.113 46.5602 42.8604L46.6444 42.4395L57.6305 36.6729L68.6166 42.4395L68.7007 42.8604C68.7428 43.113 68.4482 43.3234 68.1956 43.1972Z" fill="#F9A111"/>
<path d="M75.2251 22.7403L66.8066 30.9483C66.7225 31.0325 66.6804 31.1588 66.7225 31.243L66.5962 30.5695C66.5541 30.359 66.6383 30.1065 66.8066 29.9802L74.8463 22.151L75.0567 22.1931C75.3093 22.2352 75.4356 22.572 75.2251 22.7403Z" fill="url(#paint7_linear_1_1773)"/>
<path d="M40.0778 22.7403L48.4963 30.9483C48.5805 31.0325 48.6226 31.1588 48.5805 31.243L48.7068 30.5695C48.7489 30.359 48.6647 30.1065 48.4963 29.9802L40.4567 22.151L40.2462 22.1931C39.9516 22.2352 39.8674 22.572 40.0778 22.7403Z" fill="url(#paint8_linear_1_1773)"/>
<path d="M192.999 43.5761L184.033 48.2904C183.823 48.4167 183.57 48.2062 183.612 47.9958L185.338 38.0199C185.338 37.9357 185.338 37.8094 185.254 37.7674L177.972 30.6538C177.804 30.4854 177.888 30.1907 178.14 30.1486L188.158 28.6754C188.242 28.6754 188.327 28.5912 188.369 28.507L192.873 19.4151C192.999 19.2046 193.293 19.2046 193.378 19.4151L197.882 28.507C197.924 28.5912 198.008 28.6333 198.092 28.6754L208.11 30.1486C208.363 30.1907 208.447 30.4854 208.278 30.6538L201.038 37.7253C200.954 37.8095 200.954 37.8936 200.954 37.9778L202.68 47.9537C202.722 48.2063 202.47 48.3746 202.259 48.2483L193.293 43.534C193.167 43.534 193.083 43.534 192.999 43.5761Z" fill="#494A9E"/>
<path d="M191.736 41.8924L182.77 46.6067C182.56 46.733 182.307 46.5225 182.35 46.3121L184.075 36.3362C184.075 36.252 184.075 36.1257 183.991 36.0836L176.709 28.97C176.541 28.8017 176.625 28.507 176.878 28.4649L186.896 26.9917C186.98 26.9917 187.064 26.9075 187.106 26.8233L191.61 17.7314C191.736 17.5209 192.031 17.5209 192.115 17.7314L196.619 26.8233C196.661 26.9075 196.745 26.9496 196.829 26.9917L206.847 28.4649C207.1 28.507 207.184 28.8017 207.016 28.97L199.776 36.0415C199.692 36.1257 199.692 36.2099 199.692 36.2941L201.417 46.27C201.459 46.5225 201.207 46.6909 200.996 46.5646L192.031 41.8503C191.905 41.8503 191.82 41.8503 191.736 41.8924Z" fill="url(#paint9_linear_1_1773)"/>
<path d="M200.996 46.6067L192.031 41.8924C191.946 41.8503 191.862 41.8503 191.736 41.8924L182.77 46.6067C182.56 46.733 182.307 46.5226 182.349 46.3121L182.391 45.9754L191.862 40.9664L201.333 45.9333L201.375 46.27C201.459 46.5226 201.207 46.733 200.996 46.6067Z" fill="#F9A111"/>
<path d="M207.015 28.9701L199.734 36.0416C199.649 36.1257 199.649 36.2099 199.649 36.2941L199.565 35.7048C199.523 35.4944 199.607 35.326 199.734 35.1997L206.679 28.4229L206.847 28.4649C207.1 28.507 207.226 28.8017 207.015 28.9701Z" fill="url(#paint10_linear_1_1773)"/>
<path d="M176.709 28.9701L183.991 36.0416C184.075 36.1257 184.075 36.2099 184.075 36.2941L184.16 35.7048C184.202 35.4944 184.117 35.326 183.991 35.1997L177.046 28.4229L176.878 28.4649C176.625 28.507 176.541 28.8017 176.709 28.9701Z" fill="url(#paint11_linear_1_1773)"/>
<path d="M17.0109 43.5762L8.04527 48.2905C7.83481 48.4168 7.58226 48.2063 7.62435 47.9958L9.35013 38.02C9.35013 37.9358 9.35013 37.8095 9.26595 37.7674L2.02607 30.6959C1.8577 30.5275 1.94189 30.2329 2.19444 30.1908L12.2124 28.7176C12.2966 28.7176 12.3808 28.6334 12.4229 28.5492L16.9268 19.4573C17.053 19.2468 17.3477 19.2468 17.4319 19.4573L21.9357 28.5492C21.9778 28.6334 22.062 28.6755 22.1462 28.7176L32.1642 30.1908C32.4167 30.2329 32.5009 30.5275 32.3325 30.6959L25.0506 37.7674C24.9664 37.8516 24.9664 37.9358 24.9664 38.02L26.6922 47.9958C26.7343 48.2484 26.4817 48.4168 26.2712 48.2905L17.3056 43.5762C17.1793 43.5341 17.0951 43.5341 17.0109 43.5762Z" fill="#494A9E"/>
<path d="M15.7482 41.8924L6.78258 46.6067C6.57212 46.733 6.31956 46.5225 6.36166 46.3121L8.08744 36.3362C8.08744 36.252 8.08744 36.1257 8.00325 36.0836L0.763377 29.0121C0.595007 28.8438 0.679193 28.5491 0.931747 28.507L10.9497 27.0338C11.0339 27.0338 11.1181 26.9496 11.1602 26.8654L15.6641 17.7735C15.7903 17.563 16.085 17.563 16.1692 17.7735L20.673 26.8654C20.7151 26.9496 20.7993 26.9917 20.8835 27.0338L30.9015 28.507C31.154 28.5491 31.2382 28.8438 31.0698 29.0121L23.83 36.0836C23.7458 36.1678 23.7458 36.252 23.7458 36.3362L25.4716 46.3121C25.5137 46.5646 25.2611 46.733 25.0506 46.6067L16.085 41.8924C15.9166 41.8503 15.8324 41.8503 15.7482 41.8924Z" fill="url(#paint12_linear_1_1773)"/>
<path d="M25.0085 46.6067L16.0428 41.8924C15.9586 41.8503 15.8744 41.8503 15.7482 41.8924L6.7825 46.6067C6.57204 46.733 6.31948 46.5226 6.36157 46.3121L6.40367 45.9754L15.8744 40.9664L25.3452 45.9333L25.3873 46.27C25.4715 46.5226 25.2189 46.733 25.0085 46.6067Z" fill="#F9A111"/>
<path d="M31.0277 28.9701L23.7457 36.0416C23.6615 36.1258 23.6615 36.21 23.6615 36.2941L23.5774 35.7049C23.5353 35.4944 23.6194 35.326 23.7457 35.1997L30.691 28.4229L30.8593 28.465C31.1119 28.5071 31.1961 28.8017 31.0277 28.9701Z" fill="url(#paint13_linear_1_1773)"/>
<path d="M0.721385 28.9701L8.00335 36.0416C8.08754 36.1258 8.08754 36.21 8.08754 36.2941L8.17172 35.7049C8.21381 35.4944 8.12963 35.326 8.00335 35.1997L1.05812 28.4229L0.889753 28.465C0.637199 28.5071 0.553016 28.8017 0.721385 28.9701Z" fill="url(#paint14_linear_1_1773)"/>
<defs>
<linearGradient id="paint0_linear_1_1773" x1="103.847" y1="-0.391374" x2="103.911" y2="39.3697" gradientUnits="userSpaceOnUse">
<stop stop-color="#FFD43B"/>
<stop offset="1" stop-color="#F9A825"/>
</linearGradient>
<linearGradient id="paint1_linear_1_1773" x1="114.986" y1="21.2291" x2="125.854" y2="21.2291" gradientUnits="userSpaceOnUse">
<stop stop-color="#F9A114"/>
<stop offset="1" stop-color="#FCBF31"/>
</linearGradient>
<linearGradient id="paint2_linear_1_1773" x1="81.8928" y1="21.2291" x2="92.7609" y2="21.2291" gradientUnits="userSpaceOnUse">
<stop stop-color="#FCBF31"/>
<stop offset="1" stop-color="#F9A114"/>
</linearGradient>
<linearGradient id="paint3_linear_1_1773" x1="150.083" y1="9.30853" x2="150.135" y2="41.3018" gradientUnits="userSpaceOnUse">
<stop stop-color="#FFD43B"/>
<stop offset="1" stop-color="#F9A825"/>
</linearGradient>
<linearGradient id="paint4_linear_1_1773" x1="158.963" y1="30.9169" x2="167.554" y2="22.261" gradientUnits="userSpaceOnUse">
<stop stop-color="#F9A114"/>
<stop offset="1" stop-color="#FCBF31"/>
</linearGradient>
<linearGradient id="paint5_linear_1_1773" x1="141.148" y1="30.7771" x2="132.568" y2="22.2291" gradientUnits="userSpaceOnUse">
<stop stop-color="#F9A114"/>
<stop offset="1" stop-color="#FCBF31"/>
</linearGradient>
<linearGradient id="paint6_linear_1_1773" x1="57.6211" y1="9.30853" x2="57.6732" y2="41.3018" gradientUnits="userSpaceOnUse">
<stop stop-color="#FFD43B"/>
<stop offset="1" stop-color="#F9A825"/>
</linearGradient>
<linearGradient id="paint7_linear_1_1773" x1="66.5841" y1="26.7052" x2="75.3291" y2="26.7052" gradientUnits="userSpaceOnUse">
<stop stop-color="#F9A114"/>
<stop offset="1" stop-color="#FCBF31"/>
</linearGradient>
<linearGradient id="paint8_linear_1_1773" x1="39.9561" y1="26.7052" x2="48.701" y2="26.7052" gradientUnits="userSpaceOnUse">
<stop stop-color="#FCBF31"/>
<stop offset="1" stop-color="#F9A114"/>
</linearGradient>
<linearGradient id="paint9_linear_1_1773" x1="191.851" y1="17.3686" x2="191.896" y2="44.9629" gradientUnits="userSpaceOnUse">
<stop stop-color="#FFD43B"/>
<stop offset="1" stop-color="#F9A825"/>
</linearGradient>
<linearGradient id="paint10_linear_1_1773" x1="199.581" y1="32.3733" x2="207.124" y2="32.3733" gradientUnits="userSpaceOnUse">
<stop stop-color="#F9A114"/>
<stop offset="1" stop-color="#FCBF31"/>
</linearGradient>
<linearGradient id="paint11_linear_1_1773" x1="176.615" y1="32.3733" x2="184.157" y2="32.3733" gradientUnits="userSpaceOnUse">
<stop stop-color="#FCBF31"/>
<stop offset="1" stop-color="#F9A114"/>
</linearGradient>
<linearGradient id="paint12_linear_1_1773" x1="15.8587" y1="17.3686" x2="15.9037" y2="44.9629" gradientUnits="userSpaceOnUse">
<stop stop-color="#FFD43B"/>
<stop offset="1" stop-color="#F9A825"/>
</linearGradient>
<linearGradient id="paint13_linear_1_1773" x1="23.5892" y1="32.3734" x2="31.1317" y2="32.3734" gradientUnits="userSpaceOnUse">
<stop stop-color="#F9A114"/>
<stop offset="1" stop-color="#FCBF31"/>
</linearGradient>
<linearGradient id="paint14_linear_1_1773" x1="0.622889" y1="32.3734" x2="8.16541" y2="32.3734" gradientUnits="userSpaceOnUse">
<stop stop-color="#FCBF31"/>
<stop offset="1" stop-color="#F9A114"/>
</linearGradient>
</defs>
</svg>
