<svg width="18" height="14" viewBox="0 0 18 14" fill="none" xmlns="http://www.w3.org/2000/svg">
<path fill-rule="evenodd" clip-rule="evenodd" d="M17.1561 5.78255C17.0433 5.89216 16.8902 5.9548 16.729 5.9548C16.1326 5.9548 15.649 6.42455 15.649 6.99609C15.649 7.57155 16.1269 8.03896 16.7177 8.04522C17.0505 8.04836 17.3334 8.27384 17.3334 8.59719V10.6054C17.3334 12.2958 15.923 13.6667 14.1822 13.6667H11.5549C11.2833 13.6667 11.0633 13.4529 11.0633 13.1891V11.498C11.0633 11.1691 10.7973 10.9108 10.4588 10.9108C10.1284 10.9108 9.85437 11.1691 9.85437 11.498V13.1891C9.85437 13.4529 9.63435 13.6667 9.36356 13.6667H3.81794C2.08519 13.6667 0.666748 12.2965 0.666748 10.6054V8.59719C0.666748 8.27384 0.94963 8.04836 1.28248 8.04522C1.87403 8.03896 2.35115 7.57155 2.35115 6.99609C2.35115 6.44021 1.8837 6.01743 1.2712 6.01743C1.11001 6.01743 0.956883 5.9548 0.844053 5.84518C0.731223 5.73557 0.666748 5.58682 0.666748 5.43023V3.40244C0.666748 1.71444 2.08841 0.333344 3.826 0.333344H9.36356C9.63435 0.333344 9.85437 0.547084 9.85437 0.810932V2.81524C9.85437 3.13624 10.1284 3.40244 10.4588 3.40244C10.7973 3.40244 11.0633 3.13624 11.0633 2.81524V0.810932C11.0633 0.547084 11.2833 0.333344 11.5549 0.333344H14.1822C15.923 0.333344 17.3334 1.70347 17.3334 3.39461V5.3676C17.3334 5.52418 17.2689 5.67294 17.1561 5.78255ZM10.4588 9.39187C10.7973 9.39187 11.0633 9.12567 11.0633 8.80467V5.67294C11.0633 5.35194 10.7973 5.08574 10.4588 5.08574C10.1284 5.08574 9.85437 5.35194 9.85437 5.67294V8.80467C9.85437 9.12567 10.1284 9.39187 10.4588 9.39187Z" fill="#5F60B9"/>
</svg>
